<svg width="347" height="268" viewBox="0 0 347 268" fill="none" xmlns="http://www.w3.org/2000/svg">
<g opacity="0.1">
<path d="M112.989 226.483L112.909 226.287C112.274 224.723 111.261 223.339 109.96 222.261C108.66 221.183 107.113 220.444 105.458 220.108C103.803 219.773 102.09 219.853 100.473 220.341C98.8557 220.829 97.3844 221.709 96.1901 222.903L96.19 222.903L86.9081 232.184L86.9072 232.185C85.0733 234.013 84.0025 236.47 83.9114 239.059C83.8344 241.246 84.4622 243.39 85.6854 245.18C86.07 244.667 86.4911 244.181 86.9457 243.727L112.989 226.483ZM112.989 226.483C113.757 228.502 113.866 230.704 113.314 232.775C110.906 231.164 108.034 230.362 105.118 230.506C101.77 230.672 98.6028 232.075 96.2299 234.443L96.2292 234.444L86.9462 243.727L112.989 226.483Z" stroke="white" stroke-width="1.81013"/>
<path d="M88.0511 248.971C88.1006 248.874 88.143 248.791 88.1885 248.708C88.6201 247.924 89.1606 247.204 89.7941 246.571L89.7944 246.571L99.0783 237.287C99.0785 237.287 99.0787 237.287 99.0789 237.287C100.799 235.573 103.108 234.582 105.535 234.516C107.962 234.45 110.321 235.315 112.131 236.932C112.22 237.012 112.299 237.085 112.374 237.159L112.374 237.159L112.379 237.164L112.508 237.288L112.624 237.407C112.625 237.408 112.625 237.409 112.626 237.409C114.351 239.203 115.304 241.601 115.28 244.089C115.257 246.578 114.259 248.959 112.499 250.721L96.5008 266.719L89.7952 259.999C89.7952 259.999 89.7951 259.999 89.7951 259.998C88.4262 258.626 87.5093 256.868 87.1674 254.959C86.8255 253.051 87.0749 251.084 87.8822 249.321L87.8836 249.318C87.9328 249.21 87.9787 249.112 88.0263 249.019C88.0348 249.003 88.0431 248.986 88.0511 248.971Z" stroke="#F3F3F3" stroke-width="1.81013"/>
</g>
<g opacity="0.1">
<path d="M341.989 177.483L341.909 177.287C341.274 175.723 340.261 174.339 338.96 173.261C337.66 172.183 336.113 171.444 334.458 171.108C332.803 170.773 331.09 170.853 329.473 171.341C327.856 171.829 326.384 172.709 325.19 173.903L325.19 173.903L315.908 183.184L315.907 183.185C314.073 185.013 313.002 187.47 312.911 190.059C312.834 192.246 313.462 194.39 314.685 196.18C315.07 195.667 315.491 195.181 315.946 194.727L341.989 177.483ZM341.989 177.483C342.757 179.502 342.866 181.704 342.314 183.775C339.906 182.164 337.034 181.362 334.118 181.506C330.77 181.672 327.603 183.075 325.23 185.443L325.229 185.444L315.946 194.727L341.989 177.483Z" stroke="white" stroke-width="1.81013"/>
<path d="M317.051 199.971C317.101 199.874 317.143 199.791 317.189 199.708C317.62 198.924 318.161 198.204 318.794 197.571L318.794 197.571L328.078 188.287C328.079 188.287 328.079 188.287 328.079 188.287C329.799 186.573 332.108 185.582 334.535 185.516C336.962 185.45 339.321 186.315 341.131 187.932C341.22 188.012 341.299 188.085 341.374 188.159L341.374 188.159L341.379 188.164L341.508 188.288L341.624 188.407C341.625 188.408 341.625 188.409 341.626 188.409C343.351 190.203 344.304 192.601 344.28 195.089C344.257 197.578 343.259 199.959 341.499 201.721L325.501 217.719L318.795 210.999C318.795 210.999 318.795 210.999 318.795 210.998C317.426 209.626 316.509 207.868 316.167 205.959C315.826 204.051 316.075 202.084 316.882 200.321L316.884 200.318C316.933 200.21 316.979 200.112 317.026 200.019C317.035 200.003 317.043 199.986 317.051 199.971Z" stroke="#F3F3F3" stroke-width="1.81013"/>
</g>
<g opacity="0.1">
<path d="M159.989 34.4831L159.909 34.2874C159.274 32.7226 158.261 31.3394 156.96 30.2613C155.66 29.1832 154.113 28.4436 152.458 28.1085C150.803 27.7734 149.09 27.8532 147.473 28.3409C145.856 28.8285 144.384 29.7088 143.19 30.9032L143.19 30.9033L133.908 40.1838L133.907 40.1847C132.073 42.0134 131.002 44.4704 130.911 47.0587C130.834 49.2463 131.462 51.3896 132.685 53.18C133.07 52.6667 133.491 52.181 133.946 51.727L159.989 34.4831ZM159.989 34.4831C160.757 36.5019 160.866 38.7038 160.314 40.7752C157.906 39.1642 155.034 38.3617 152.118 38.5062C148.77 38.6721 145.603 40.0749 143.23 42.4428L143.229 42.4435L133.946 51.7266L159.989 34.4831Z" stroke="white" stroke-width="1.81013"/>
<path d="M135.051 56.9707C135.101 56.8742 135.143 56.7915 135.189 56.7084C135.62 55.9238 136.161 55.2044 136.794 54.5715L136.794 54.5712L146.078 45.2873C146.079 45.287 146.079 45.2868 146.079 45.2866C147.799 43.573 150.108 42.5817 152.535 42.516C154.962 42.4503 157.321 43.3148 159.131 44.9323C159.22 45.0124 159.299 45.0849 159.374 45.1585L159.374 45.1586L159.379 45.1638L159.508 45.2879L159.624 45.4069C159.625 45.4077 159.625 45.4085 159.626 45.4094C161.351 47.203 162.304 49.6011 162.28 52.0892C162.257 54.5784 161.259 56.9594 159.499 58.7207L143.501 74.7194L136.795 67.9986C136.795 67.9986 136.795 67.9985 136.795 67.9985C135.426 66.6258 134.509 64.8677 134.167 62.9594C133.826 61.0512 134.075 59.084 134.882 57.3214L134.884 57.3182C134.933 57.2098 134.979 57.1118 135.026 57.0191C135.035 57.0026 135.043 56.9864 135.051 56.9707Z" stroke="#F3F3F3" stroke-width="1.81013"/>
</g>
<g opacity="0.1">
<path d="M189.989 168.483L189.909 168.287C189.274 166.723 188.261 165.339 186.96 164.261C185.66 163.183 184.113 162.444 182.458 162.108C180.803 161.773 179.09 161.853 177.473 162.341C175.856 162.829 174.384 163.709 173.19 164.903L173.19 164.903L163.908 174.184L163.907 174.185C162.073 176.013 161.002 178.47 160.911 181.059C160.834 183.246 161.462 185.39 162.685 187.18C163.07 186.667 163.491 186.181 163.946 185.727L189.989 168.483ZM189.989 168.483C190.757 170.502 190.866 172.704 190.314 174.775C187.906 173.164 185.034 172.362 182.118 172.506C178.77 172.672 175.603 174.075 173.23 176.443L173.229 176.444L163.946 185.727L189.989 168.483Z" stroke="white" stroke-width="1.81013"/>
<path d="M165.051 190.971C165.101 190.874 165.143 190.791 165.189 190.708C165.62 189.924 166.161 189.204 166.794 188.571L166.794 188.571L176.078 179.287C176.079 179.287 176.079 179.287 176.079 179.287C177.799 177.573 180.108 176.582 182.535 176.516C184.962 176.45 187.321 177.315 189.131 178.932C189.22 179.012 189.299 179.085 189.374 179.159L189.374 179.159L189.379 179.164L189.508 179.288L189.624 179.407C189.625 179.408 189.625 179.409 189.626 179.409C191.351 181.203 192.304 183.601 192.28 186.089C192.257 188.578 191.259 190.959 189.499 192.721L173.501 208.719L166.795 201.999C166.795 201.999 166.795 201.999 166.795 201.998C165.426 200.626 164.509 198.868 164.167 196.959C163.826 195.051 164.075 193.084 164.882 191.321L164.884 191.318C164.933 191.21 164.979 191.112 165.026 191.019C165.035 191.003 165.043 190.986 165.051 190.971Z" stroke="#F3F3F3" stroke-width="1.81013"/>
</g>
<g opacity="0.1">
<path d="M29.9889 158.483L29.9094 158.287C29.2737 156.723 28.2606 155.339 26.9604 154.261C25.6602 153.183 24.1134 152.444 22.458 152.108C20.8025 151.773 19.0899 151.853 17.4728 152.341C15.8557 152.829 14.3844 153.709 13.1901 154.903L13.19 154.903L3.90808 164.184L3.90722 164.185C2.07329 166.013 1.00246 168.47 0.911389 171.059C0.834421 173.246 1.46221 175.39 2.68536 177.18C3.06997 176.667 3.49111 176.181 3.94574 175.727L29.9889 158.483ZM29.9889 158.483C30.7572 160.502 30.8658 162.704 30.3136 164.775C27.9063 163.164 25.0342 162.362 22.1184 162.506C18.7702 162.672 15.6028 164.075 13.2299 166.443L13.2292 166.444L3.94618 175.727L29.9889 158.483Z" stroke="white" stroke-width="1.81013"/>
<path d="M5.05113 180.971C5.10058 180.874 5.143 180.791 5.18853 180.708C5.62007 179.924 6.16063 179.204 6.79408 178.571L6.79438 178.571L16.0783 169.287C16.0785 169.287 16.0787 169.287 16.0789 169.287C17.7986 167.573 20.1084 166.582 22.5352 166.516C24.9617 166.45 27.3214 167.315 29.1312 168.932C29.22 169.012 29.2989 169.085 29.3738 169.159L29.3737 169.159L29.3791 169.164L29.5076 169.288L29.6238 169.407C29.6246 169.408 29.6254 169.409 29.6262 169.409C31.3507 171.203 32.3035 173.601 32.2803 176.089C32.257 178.578 31.2587 180.959 29.4995 182.721L13.5008 198.719L6.79523 191.999C6.79519 191.999 6.79515 191.999 6.7951 191.998C5.42616 190.626 4.50935 188.868 4.16745 186.959C3.82554 185.051 4.07491 183.084 4.88218 181.321L4.88363 181.318C4.93275 181.21 4.97869 181.112 5.02628 181.019C5.03478 181.003 5.04305 180.986 5.05113 180.971Z" stroke="#F3F3F3" stroke-width="1.81013"/>
</g>
<g opacity="0.1">
<path d="M342.989 3.48308L342.909 3.28741C342.274 1.72259 341.261 0.339427 339.96 -0.738703C338.66 -1.81683 337.113 -2.55642 335.458 -2.8915C333.803 -3.22659 332.09 -3.14676 330.473 -2.65911C328.856 -2.17147 327.384 -1.29119 326.19 -0.0967696L326.19 -0.0966682L316.908 9.1838L316.907 9.18466C315.073 11.0134 314.002 13.4704 313.911 16.0587C313.834 18.2463 314.462 20.3896 315.685 22.18C316.07 21.6667 316.491 21.181 316.946 20.727L342.989 3.48308ZM342.989 3.48308C343.757 5.50195 343.866 7.70377 343.314 9.77518C340.906 8.16419 338.034 7.36166 335.118 7.50615C331.77 7.67208 328.603 9.07489 326.23 11.4428L326.229 11.4435L316.946 20.7266L342.989 3.48308Z" stroke="white" stroke-width="1.81013"/>
<path d="M318.051 25.9707C318.101 25.8742 318.143 25.7915 318.189 25.7084C318.62 24.9238 319.161 24.2044 319.794 23.5715L319.794 23.5712L329.078 14.2873C329.079 14.287 329.079 14.2868 329.079 14.2866C330.799 12.573 333.108 11.5817 335.535 11.516C337.962 11.4503 340.321 12.3148 342.131 13.9323C342.22 14.0124 342.299 14.0849 342.374 14.1585L342.374 14.1586L342.379 14.1638L342.508 14.2879L342.624 14.4069C342.625 14.4077 342.625 14.4085 342.626 14.4094C344.351 16.203 345.304 18.6011 345.28 21.0892C345.257 23.5784 344.259 25.9594 342.499 27.7207L326.501 43.7194L319.795 36.9986C319.795 36.9986 319.795 36.9985 319.795 36.9985C318.426 35.6258 317.509 33.8677 317.167 31.9594C316.826 30.0512 317.075 28.084 317.882 26.3214L317.884 26.3182C317.933 26.2098 317.979 26.1118 318.026 26.0191C318.035 26.0026 318.043 25.9864 318.051 25.9707Z" stroke="#F3F3F3" stroke-width="1.81013"/>
</g>
<g opacity="0.1">
<path d="M274.989 74.4831L274.909 74.2874C274.274 72.7226 273.261 71.3394 271.96 70.2613C270.66 69.1832 269.113 68.4436 267.458 68.1085C265.803 67.7734 264.09 67.8532 262.473 68.3409C260.856 68.8285 259.384 69.7088 258.19 70.9032L258.19 70.9033L248.908 80.1838L248.907 80.1847C247.073 82.0134 246.002 84.4704 245.911 87.0587C245.834 89.2463 246.462 91.3896 247.685 93.18C248.07 92.6667 248.491 92.181 248.946 91.727L274.989 74.4831ZM274.989 74.4831C275.757 76.5019 275.866 78.7038 275.314 80.7752C272.906 79.1642 270.034 78.3617 267.118 78.5062C263.77 78.6721 260.603 80.0749 258.23 82.4428L258.229 82.4435L248.946 91.7266L274.989 74.4831Z" stroke="white" stroke-width="1.81013"/>
<path d="M250.051 96.9707C250.101 96.8742 250.143 96.7915 250.189 96.7084C250.62 95.9238 251.161 95.2044 251.794 94.5715L251.794 94.5712L261.078 85.2873C261.079 85.287 261.079 85.2868 261.079 85.2866C262.799 83.573 265.108 82.5817 267.535 82.516C269.962 82.4503 272.321 83.3148 274.131 84.9323C274.22 85.0124 274.299 85.0849 274.374 85.1585L274.374 85.1586L274.379 85.1638L274.508 85.2879L274.624 85.4069C274.625 85.4077 274.625 85.4085 274.626 85.4094C276.351 87.203 277.304 89.6011 277.28 92.0892C277.257 94.5784 276.259 96.9594 274.499 98.7207L258.501 114.719L251.795 107.999C251.795 107.999 251.795 107.999 251.795 107.998C250.426 106.626 249.509 104.868 249.167 102.959C248.826 101.051 249.075 99.084 249.882 97.3214L249.884 97.3182C249.933 97.2098 249.979 97.1118 250.026 97.0191C250.035 97.0026 250.043 96.9864 250.051 96.9707Z" stroke="#F3F3F3" stroke-width="1.81013"/>
</g>
</svg>
