<svg width="48" height="48" viewBox="0 0 48 48" fill="none" xmlns="http://www.w3.org/2000/svg">
<path d="M4.58008 15.56V35.02C4.58008 38.82 7.28008 40.38 10.5601 38.5L15.2601 35.82C16.2801 35.24 17.9801 35.18 19.0401 35.72L29.5401 40.98C30.6001 41.5 32.3001 41.46 33.3201 40.88L41.9801 35.92C43.0801 35.28 44.0001 33.72 44.0001 32.44V12.98C44.0001 9.18001 41.3001 7.62001 38.0201 9.50001L33.3201 12.18C32.3001 12.76 30.6001 12.82 29.5401 12.28L19.0401 7.04001C17.9801 6.52001 16.2801 6.56001 15.2601 7.14001L6.60008 12.1C5.48008 12.74 4.58008 14.3 4.58008 15.56Z" stroke="#1E1E4B" stroke-width="3" stroke-linecap="round" stroke-linejoin="round"/>
<path d="M17.1201 8V34" stroke="#1E1E4B" stroke-width="3" stroke-linecap="round" stroke-linejoin="round"/>
<path d="M31.46 13.24V40" stroke="#1E1E4B" stroke-width="3" stroke-linecap="round" stroke-linejoin="round"/>
</svg>
