<svg width="40" height="40" viewBox="0 0 40 40" fill="none" xmlns="http://www.w3.org/2000/svg">
<path opacity="0.4" d="M36.1 17.3998L34.4666 24.3665C33.0666 30.3832 30.3 32.8165 25.1 32.3165C24.2666 32.2498 23.3666 32.0999 22.4 31.8665L19.6 31.1998C12.65 29.5498 10.5 26.1165 12.1333 19.1499L13.7666 12.1665C14.1 10.7499 14.5 9.51652 15 8.49985C16.95 4.46652 20.2666 3.38318 25.8333 4.69985L28.6166 5.34985C35.6 6.98318 37.7333 10.4332 36.1 17.3998Z" fill="#532F82"/>
<path d="M25.1006 32.3167C24.0672 33.0167 22.7672 33.6 21.1839 34.1167L18.5506 34.9833C11.9339 37.1167 8.45057 35.3333 6.30057 28.7167L4.16724 22.1333C2.0339 15.5167 3.80057 12.0167 10.4172 9.88333L13.0506 9.01667C13.7339 8.8 14.3839 8.61667 15.0006 8.5C14.5006 9.51667 14.1006 10.75 13.7672 12.1667L12.1339 19.15C10.5006 26.1167 12.6506 29.55 19.6006 31.2L22.4006 31.8667C23.3672 32.1 24.2672 32.25 25.1006 32.3167Z" fill="#532F82"/>
<path d="M29.1503 17.5168C29.0503 17.5168 28.9503 17.5001 28.8336 17.4834L20.7503 15.4335C20.0836 15.2668 19.6836 14.5835 19.8503 13.9168C20.0169 13.2501 20.7003 12.8501 21.3669 13.0168L29.4503 15.0668C30.1169 15.2334 30.5169 15.9168 30.3503 16.5834C30.2169 17.1334 29.7003 17.5168 29.1503 17.5168Z" fill="#532F82"/>
<path d="M24.2666 23.1501C24.1666 23.1501 24.0666 23.1334 23.9499 23.1167L19.0999 21.8834C18.4332 21.7167 18.0332 21.0334 18.1999 20.3667C18.3666 19.7001 19.0499 19.3001 19.7166 19.4667L24.5666 20.7001C25.2332 20.8667 25.6332 21.5501 25.4666 22.2167C25.3332 22.7834 24.8332 23.1501 24.2666 23.1501Z" fill="#532F82"/>
</svg>
